<svg xmlns="http://www.w3.org/2000/svg" viewBox="0 0 24 24" width="24" height="24" color="#f8f8fa" fill="none">
    <defs />
    <path fill="currentColor" d="M11.75,11.678 L11.75,21.121 C12.088,21.013 12.52,20.827 13.203,20.534 C13.584,20.37 14.026,20.546 14.189,20.927 C14.353,21.307 14.177,21.748 13.796,21.912 L13.565,22.011 C12.544,22.451 11.852,22.75 11,22.75 C10.028,22.75 9.113,22.363 7.694,21.763 L7.545,21.7 L7.483,21.674 C5.59,20.874 4.092,20.242 3.073,19.631 C2.067,19.027 1.25,18.282 1.25,17.161 L1.25,7 C1.25,6.928 1.26,6.858 1.279,6.791 C1.26,6.7 1.25,6.602 1.25,6.5 C1.25,5.798 1.735,5.352 2.181,5.05 C2.627,4.749 3.269,4.439 4.024,4.073 L4.078,4.047 L6.999,2.634 L7.165,2.553 C8.807,1.758 9.856,1.25 11,1.25 C12.144,1.25 13.193,1.758 14.835,2.553 L15.001,2.634 L17.976,4.073 C18.732,4.439 19.373,4.749 19.819,5.05 C20.265,5.352 20.75,5.798 20.75,6.5 C20.75,6.602 20.74,6.7 20.721,6.791 C20.74,6.858 20.75,6.928 20.75,7 L20.75,11 C20.75,11.414 20.414,11.75 20,11.75 C19.586,11.75 19.25,11.414 19.25,11 L19.25,8.289 C18.885,8.487 18.453,8.696 17.976,8.927 L17.976,8.927 L15.001,10.366 L14.835,10.447 C13.555,11.067 12.635,11.512 11.75,11.678 Z M2.75,8.289 L2.75,17.161 C2.75,17.423 2.905,17.78 3.845,18.344 C4.761,18.894 6.16,19.487 8.129,20.319 C9.148,20.749 9.771,21.006 10.25,21.138 L10.25,11.678 C9.365,11.512 8.445,11.067 7.165,10.447 L6.999,10.366 L4.024,8.927 C3.547,8.696 3.116,8.487 2.75,8.289 Z M7.653,3.984 L4.731,5.397 C3.907,5.796 3.366,6.06 3.021,6.293 C2.873,6.393 2.801,6.461 2.768,6.5 C2.801,6.539 2.873,6.607 3.021,6.707 C3.366,6.94 3.907,7.204 4.731,7.603 L5.944,8.19 L14.352,3.986 L14.347,3.984 C12.48,3.08 11.758,2.75 11,2.75 C10.242,2.75 9.52,3.08 7.653,3.984 Z M7.649,9.014 L7.653,9.016 C9.52,9.92 10.242,10.25 11,10.25 C11.758,10.25 12.48,9.92 14.347,9.016 L17.269,7.603 C18.093,7.204 18.634,6.94 18.979,6.707 C19.127,6.607 19.199,6.539 19.232,6.5 C19.199,6.461 19.127,6.393 18.979,6.293 C18.634,6.06 18.093,5.796 17.269,5.397 L16.056,4.811 Z M18.5,13.25 C18.914,13.25 19.25,13.586 19.25,14 L19.25,16.75 L22,16.75 C22.414,16.75 22.75,17.086 22.75,17.5 C22.75,17.914 22.414,18.25 22,18.25 L19.25,18.25 L19.25,21 C19.25,21.414 18.914,21.75 18.5,21.75 C18.086,21.75 17.75,21.414 17.75,21 L17.75,18.25 L15,18.25 C14.586,18.25 14.25,17.914 14.25,17.5 C14.25,17.086 14.586,16.75 15,16.75 L17.75,16.75 L17.75,14 C17.75,13.586 18.086,13.25 18.5,13.25 Z M4.329,11.665 C4.515,11.294 4.965,11.144 5.336,11.329 L7.336,12.329 C7.706,12.515 7.856,12.965 7.671,13.336 C7.486,13.706 7.035,13.856 6.665,13.671 L4.665,12.671 C4.294,12.486 4.144,12.035 4.329,11.665 Z" />
</svg>